<?xml version="1.0" encoding="UTF-8" standalone="no" ?>
<!DOCTYPE svg PUBLIC "-//W3C//DTD SVG 1.1//EN" "http://www.w3.org/Graphics/SVG/1.1/DTD/svg11.dtd">
<svg xmlns="http://www.w3.org/2000/svg" xmlns:xlink="http://www.w3.org/1999/xlink" version="1.1" width="1280" height="1024" viewBox="0 0 1280 1024" xml:space="preserve">
<desc>Created with Fabric.js 3.6.3</desc>
<defs>
</defs>
<g transform="matrix(1.9476934312163225 0 0 1.9451084704672987 640.0153846153846 372.99281773166547)" id="logo-logo"  >
<g style=""  paint-order="stroke"   >
		<g transform="matrix(0.2471 0 0 -0.2471 -0.8302005000000463 94.22267999999991)"  >
<path style="stroke: none; stroke-width: 1; stroke-dasharray: none; stroke-linecap: butt; stroke-dashoffset: 0; stroke-linejoin: miter; stroke-miterlimit: 4; fill: rgb(122,162,40); fill-rule: nonzero; opacity: 1;"  paint-order="stroke"  transform=" translate(-6117.334999999999, -7789.344999999999)" d="m 6246.23 7823.4 h -257.77 c -64.58 0 -119.27 -28.47 -139.2 -68.11 h 536.15 c -19.89 39.64 -74.59 68.11 -139.18 68.11" stroke-linecap="round" />
</g>
		<g transform="matrix(0.2471 0 0 -0.2471 -38.167440499999884 -32.8635500000002)"  >
<path style="stroke: none; stroke-width: 1; stroke-dasharray: none; stroke-linecap: butt; stroke-dashoffset: 0; stroke-linejoin: miter; stroke-miterlimit: 4; fill: rgb(122,162,40); fill-rule: nonzero; opacity: 1;"  paint-order="stroke"  transform=" translate(-5966.235000000001, -8303.650000000001)" d="m 5959.53 8312.57 h 88.67 l 30.31 -71.38 l -12.25 71.38 h 0.02 l -9.2 53.54 h -97.55 c -39.07 0 -75.42 -11.99 -105.57 -32.43 l 45.73 -35.32 c 18.04 9 38.35 14.21 59.84 14.21" stroke-linecap="round" />
</g>
		<g transform="matrix(0.2471 0 0 -0.2471 26.798369500000035 -39.14984999999996)"  >
<path style="stroke: none; stroke-width: 1; stroke-dasharray: none; stroke-linecap: butt; stroke-dashoffset: 0; stroke-linejoin: miter; stroke-miterlimit: 4; fill: rgb(122,162,40); fill-rule: nonzero; opacity: 1;"  paint-order="stroke"  transform=" translate(-6229.145, -8329.09)" d="m 6275.18 8312.57 c 26.12 0 50.43 -7.62 71.11 -20.5 l 22.3 15.84 c -7.44 12.91 -13.06 26.97 -16.86 41.79 c -23.41 10.44 -49.26 16.41 -76.55 16.41 H 6089.7 l 9.19 -53.54 h 176.29" stroke-linecap="round" />
</g>
		<g transform="matrix(0.2471 0 0 -0.2471 61.7115295000001 15.267139999999984)"  >
<path style="stroke: none; stroke-width: 1; stroke-dasharray: none; stroke-linecap: butt; stroke-dashoffset: 0; stroke-linejoin: miter; stroke-miterlimit: 4; fill: rgb(122,162,40); fill-rule: nonzero; opacity: 1;"  paint-order="stroke"  transform=" translate(-6370.435000000001, -8108.870000000001)" d="m 6387.21 8281.69 l -109.98 -78.15 l 111.75 46.18 c 13.31 -20.86 21.1 -45.54 21.1 -72.05 v -135.83 c 0 -29.21 -9.44 -56.18 -25.23 -78.29 l 46.19 -27.5 c 20.55 30.2 32.6 66.6 32.6 105.79 v 135.83 c 0 19.95 -3.21 39.22 -8.99 57.3 c -26.25 9.82 -49.39 25.93 -67.44 46.72" stroke-linecap="round" />
</g>
		<g transform="matrix(0.2471 0 0 -0.2471 -62.37487050000004 8.176529999999786)"  >
<path style="stroke: none; stroke-width: 1; stroke-dasharray: none; stroke-linecap: butt; stroke-dashoffset: 0; stroke-linejoin: miter; stroke-miterlimit: 4; fill: rgb(122,162,40); fill-rule: nonzero; opacity: 1;"  paint-order="stroke"  transform=" translate(-5868.2699999999995, -8137.564999999999)" d="m 5824.61 8041.84 v 135.83 c 0 27.67 8.58 53.31 22.99 74.73 l 117.87 -45.54 l -94.04 72.72 v 0.01 l -42.95 33.2 c -35.32 -34.28 -57.41 -82.13 -57.41 -135.12 v -135.83 c 0 -28.44 6.51 -55.34 17.84 -79.5 l 47.75 24.03 c -7.66 16.95 -12.05 35.68 -12.05 55.47" stroke-linecap="round" />
</g>
		<g transform="matrix(0.2471 0 0 -0.2471 -107.96288049999998 65.16708999999997)"  >
<path style="stroke: none; stroke-width: 1; stroke-dasharray: none; stroke-linecap: butt; stroke-dashoffset: 0; stroke-linejoin: miter; stroke-miterlimit: 4; fill: rgb(122,162,40); fill-rule: nonzero; opacity: 1;"  paint-order="stroke"  transform=" translate(-5683.78, -7906.93)" d="m 5745.02 7940.23 c -7.07 6.96 -16.77 11.27 -27.47 11.27 c -8.26 0 -15.92 -2.54 -22.17 -6.86 c -8.92 18.35 -27.74 30.82 -49.55 30.82 c -30.54 0 -55.29 -24.71 -55.29 -55.27 c 0 -4.23 0.51 -8.28 1.41 -12.23 c -16.68 -2.69 -29.28 -17.11 -29.28 -34.51 c 0 -19.39 15.66 -35.05 35.04 -35.05 h 170.16 c 19.38 0 35.03 15.66 35.03 35.05 c 0 19.34 -15.65 34.99 -35.03 34.99 c -4.06 0 -8.05 -0.76 -11.71 -2.02 c 0.25 1.12 0.25 2.35 0.29 3.56 l 48.44 24.4 c -6.11 8.8 -11.41 18.15 -15.98 27.96 l -43.89 -22.11" stroke-linecap="round" />
</g>
		<g transform="matrix(0.2471 0 0 -0.2471 -16.862230499999896 -75.46778999999987)"  >
<path style="stroke: none; stroke-width: 1; stroke-dasharray: none; stroke-linecap: butt; stroke-dashoffset: 0; stroke-linejoin: miter; stroke-miterlimit: 4; fill: rgb(122,162,40); fill-rule: nonzero; opacity: 1;"  paint-order="stroke"  transform=" translate(-6052.455, -8476.065)" d="m 6084.59 8395.97 c 38.22 13.29 65.65 49.54 65.65 92.28 c 0 54.02 -43.78 97.77 -97.76 97.77 c -54 0 -97.81 -43.75 -97.81 -97.77 c 0 -54.02 43.81 -97.79 97.81 -97.79 c 0.15 0 0.31 0.03 0.44 0.03 l 4.16 -24.38 h 32.62 z m 15.12 105.41 c 7.23 0 13.12 -5.89 13.12 -13.13 c 0 -7.25 -5.89 -13.14 -13.12 -13.14 c -7.27 0 -13.14 5.89 -13.14 13.14 c 0 7.24 5.87 13.13 13.14 13.13 z m -94.46 -26.27 c -7.25 0 -13.11 5.89 -13.11 13.14 c 0 7.24 5.86 13.13 13.11 13.13 c 7.24 0 13.13 -5.89 13.13 -13.13 c 0 -7.25 -5.89 -13.14 -13.13 -13.14 z m 47.23 0 c -7.26 0 -13.12 5.89 -13.12 13.14 c 0 7.24 5.86 13.13 13.12 13.13 c 7.23 0 13.13 -5.89 13.13 -13.13 c 0 -7.25 -5.9 -13.14 -13.13 -13.14" stroke-linecap="round" />
</g>
		<g transform="matrix(0.2471 0 0 -0.2471 -98.1751405 -61.579379999999844)"  >
<path style="stroke: none; stroke-width: 1; stroke-dasharray: none; stroke-linecap: butt; stroke-dashoffset: 0; stroke-linejoin: miter; stroke-miterlimit: 4; fill: rgb(122,162,40); fill-rule: nonzero; opacity: 1;"  paint-order="stroke"  transform=" translate(-5723.39, -8419.86)" d="m 5745.38 8449.26 h -43.99 c -2.37 0 -4.28 -1.92 -4.28 -4.29 v -50.25 c 0 -2.34 1.91 -4.26 4.28 -4.26 h 22.01 h 21.98 c 2.38 0 4.29 1.92 4.29 4.26 v 50.25 c 0 2.37 -1.91 4.29 -4.29 4.29" stroke-linecap="round" />
</g>
		<g transform="matrix(0.2471 0 0 -0.2471 -97.74394050000001 -60.22030999999987)"  >
<path style="stroke: none; stroke-width: 1; stroke-dasharray: none; stroke-linecap: butt; stroke-dashoffset: 0; stroke-linejoin: miter; stroke-miterlimit: 4; fill: rgb(122,162,40); fill-rule: nonzero; opacity: 1;"  paint-order="stroke"  transform=" translate(-5725.135, -8414.36)" d="m 5832.8 8350.06 c 11.16 18.88 17.63 40.8 17.63 64.28 c 0 70.17 -56.89 127.06 -127.03 127.06 c -70.2 0 -127.09 -56.89 -127.09 -127.06 c 0 -70.14 56.89 -127.02 127.09 -127.02 c 35.08 0 66.89 14.22 89.84 37.22 l 15.24 -11.75 c 7.88 7.66 16.4 14.71 25.48 20.89 z m -68.8 57.14 c 0 -11.75 -1.96 -29.91 -4.29 -40.37 c -2.33 -10.46 -13.91 -19.02 -25.65 -19.02 h -10.66 h -10.69 c -11.75 0 -23.31 8.56 -25.66 19.02 c -2.35 10.46 -4.26 28.62 -4.26 40.37 v 38.93 c 0 11.73 9.62 21.35 21.37 21.35 h 19.24 h 19.21 c 11.77 0 21.39 -9.62 21.39 -21.35 v -38.93" stroke-linecap="round" />
</g>
		<g transform="matrix(0.2471 0 0 -0.2471 -98.1776104999999 -49.083380000000204)"  >
<path style="stroke: none; stroke-width: 1; stroke-dasharray: none; stroke-linecap: butt; stroke-dashoffset: 0; stroke-linejoin: miter; stroke-miterlimit: 4; fill: rgb(122,162,40); fill-rule: nonzero; opacity: 1;"  paint-order="stroke"  transform=" translate(-5723.379999999999, -8369.29)" d="m 5723.4 8377.7 c -4.66 0 -8.42 -3.74 -8.42 -8.4 c 0 -4.63 3.76 -8.42 8.42 -8.42 c 4.63 0 8.38 3.79 8.38 8.42 c 0 4.66 -3.75 8.4 -8.38 8.4" stroke-linecap="round" />
</g>
		<g transform="matrix(0.2471 0 0 -0.2471 101.63063950000014 77.39781999999974)"  >
<path style="stroke: none; stroke-width: 1; stroke-dasharray: none; stroke-linecap: butt; stroke-dashoffset: 0; stroke-linejoin: miter; stroke-miterlimit: 4; fill: rgb(122,162,40); fill-rule: nonzero; opacity: 1;"  paint-order="stroke"  transform=" translate(-6531.983534609775, -7857.433486750832)" d="m 6621.7 7842.01 c -1.07 1.54 -2.81 2.42 -4.68 2.32 c -1.82 -0.05 -3.47 -1.1 -4.43 -2.75 l -3.64 -6.5 l -106.46 59.62 c -0.36 0.24 -0.75 0.48 -1.14 0.69 c -0.06 0.06 -0.11 0.09 -0.16 0.09 c -0.15 0.09 -0.29 0.13 -0.41 0.18 l -7.26 4.03 l 34.07 7.88 l 16.4 -9.17 c -0.58 -8.52 3.76 -16.76 11.42 -21.1 c 5.22 -2.91 11.3 -3.64 17.08 -2 c 5.75 1.61 10.55 5.4 13.46 10.62 c 2.92 5.27 3.66 11.29 2.02 17.08 c -1.63 5.8 -5.41 10.53 -10.63 13.52 c -7.63 4.27 -16.94 3.64 -23.89 -1.31 l -19.72 10.95 c -2.07 1.22 -4.51 1.54 -6.83 0.97 l -58.29 -13.42 l -37.57 22.34 c -3.48 -5.12 -7.21 -10.03 -11.16 -14.8 l 69.12 -41.05 l 19.02 -56.75 c 0.7 -2.29 2.29 -4.22 4.37 -5.4 l 21.52 -11.98 l -2.67 -4.7 c -1.4 -2.56 -0.48 -5.82 2.07 -7.24 l 26.12 -14.64 c 1.22 -0.68 2.74 -0.86 4.09 -0.47 c 1.32 0.39 2.5 1.28 3.19 2.52 l 14.64 26.12 c 0.64 1.25 0.86 2.71 0.47 4.06 c -0.36 1.39 -1.28 2.55 -2.52 3.19 l -26.15 14.64 c -2.58 1.48 -5.81 0.56 -7.25 -2.05 l -2.61 -4.64 l -18.19 10.17 l -11.06 33.16 l 85.51 -47.89 l -3.63 -6.53 c -0.94 -1.64 -0.97 -3.59 -0.04 -5.22 c 0.92 -1.61 2.58 -2.66 4.43 -2.74 l 38.21 -1.77 c 2 -0.09 3.94 0.94 4.89 2.69 c 0.98 1.79 0.89 3.95 -0.23 5.64 l -21.48 31.64" stroke-linecap="round" />
</g>
		<g transform="matrix(0.2471 0 0 -0.2471 96.84090949999995 -54.314550000000224)"  >
<path style="stroke: none; stroke-width: 1; stroke-dasharray: none; stroke-linecap: butt; stroke-dashoffset: 0; stroke-linejoin: miter; stroke-miterlimit: 4; fill: rgb(122,162,40); fill-rule: nonzero; opacity: 1;"  paint-order="stroke"  transform=" translate(-6512.599999999999, -8390.46)" d="m 6454.65 8234.97 c 18.06 -6.76 37.52 -10.62 57.94 -10.62 c 91.75 0 166.13 74.33 166.13 166.11 c 0 91.74 -74.38 166.11 -166.13 166.11 c -91.76 0 -166.11 -74.37 -166.11 -166.11 c 0 -14.12 1.95 -27.73 5.25 -40.76 c 48.66 -21.77 86.51 -63.47 102.92 -114.73 z m 51.01 234.67 c 9.25 0 18 -2.08 25.82 -5.78 c 20.66 -9.62 34.97 -30.53 34.97 -54.8 v -8.06 v -1.96 l 12.32 -23.5 c 3.14 -5.95 0.19 -10.81 -6.5 -10.81 h -5.82 v -0.14 v -10.27 v -11.94 c 0 -6.99 -5.71 -12.73 -12.71 -12.73 l -23.94 3.74 l -0.03 -17.44 v -0.13 c -0.13 -2.25 -1.99 -3.75 -4.34 -3.32 l -56.4 9.96 c -2.35 0.43 -4.32 2.75 -4.32 5.14 v 2.76 v 2.2 v 32 c -12.03 11.08 -19.57 26.92 -19.57 44.59 c 0.04 33.43 27.13 60.49 60.52 60.49" stroke-linecap="round" />
</g>
		<g transform="matrix(0.2471 0 0 -0.2471 -0.8264904999998635 17.866659999999968)"  >
<path style="stroke: none; stroke-width: 1; stroke-dasharray: none; stroke-linecap: butt; stroke-dashoffset: 0; stroke-linejoin: miter; stroke-miterlimit: 4; fill: rgb(122,162,40); fill-rule: nonzero; opacity: 1;"  paint-order="stroke"  transform=" translate(-6117.35, -8098.35)" d="m 6008.43 8186.29 v -56.34 c 0 -67.27 44.62 -125.22 108.95 -151.65 c 64.27 26.43 108.89 84.38 108.89 151.65 v 56.34 c -40.7 0.25 -78.36 12.13 -108.89 32.11 c -30.63 -19.98 -68.21 -31.86 -108.95 -32.11 z m 138.67 -45.66 v -13.18 h 8.3 c 1.83 0 3.31 -1.49 3.31 -3.31 v -62.98 c 0 -1.82 -1.48 -3.33 -3.31 -3.33 h -76.12 c -1.78 0 -3.28 1.51 -3.28 3.33 v 62.98 c 0 1.82 1.5 3.31 3.28 3.31 h 8.32 v 13.18 c 0.13 16.35 13.36 29.58 29.74 29.58 c 16.38 0 29.65 -13.23 29.76 -29.58" stroke-linecap="round" />
</g>
		<g transform="matrix(0.2471 0 0 -0.2471 -0.8227904999998827 6.823639999999898)"  >
<path style="stroke: none; stroke-width: 1; stroke-dasharray: none; stroke-linecap: butt; stroke-dashoffset: 0; stroke-linejoin: miter; stroke-miterlimit: 4; fill: rgb(122,162,40); fill-rule: nonzero; opacity: 1;"  paint-order="stroke"  transform=" translate(-6117.365, -8143.04)" d="m 6099.2 8140.58 l -0.02 0.04 v -13.17 h 36.37 v 13.18 l -0.03 -0.05 c -0.06 9.94 -8.23 18.05 -18.18 18.05 c -9.95 0 -18.11 -8.11 -18.14 -18.05" stroke-linecap="round" />
</g>
		<g transform="matrix(0.2471 0 0 -0.2471 -0.827730499999916 19.36533999999989)"  >
<path style="stroke: none; stroke-width: 1; stroke-dasharray: none; stroke-linecap: butt; stroke-dashoffset: 0; stroke-linejoin: miter; stroke-miterlimit: 4; fill: rgb(122,162,40); fill-rule: nonzero; opacity: 1;"  paint-order="stroke"  transform=" translate(-6117.345, -8092.285)" d="m 6123.93 8097.95 c 0 3.63 -2.91 6.56 -6.59 6.56 c -3.64 0 -6.58 -2.93 -6.58 -6.56 c 0 -2.89 1.85 -5.28 4.38 -6.19 l -4.01 -11.7 h 12.42 l -3.93 11.7 c 2.5 0.91 4.31 3.3 4.31 6.19" stroke-linecap="round" />
</g>
		<g transform="matrix(0.2471 0 0 -0.2471 -2.0533605000000534 59.82595999999995)"  >
<path style="stroke: none; stroke-width: 1; stroke-dasharray: none; stroke-linecap: butt; stroke-dashoffset: 0; stroke-linejoin: miter; stroke-miterlimit: 4; fill: rgb(122,162,40); fill-rule: nonzero; opacity: 1;"  paint-order="stroke"  transform=" translate(-6112.384999999999, -7928.545)" d="m 6344.9 7926.65 c -20.36 -12.41 -44.15 -19.7 -69.72 -19.7 h -315.65 c -30.85 0 -59.17 10.57 -81.89 28.08 l 64.93 68.67 l -89.15 -44.88 l -0.01 0.01 l -48.52 -24.45 c 34.11 -48.88 90.66 -80.99 154.64 -80.99 h 315.65 c 58.1 0 110.09 26.41 144.7 67.86 l -132.82 78.89 l 57.84 -73.49" stroke-linecap="round" />
</g>
</g>
</g>
<g transform="matrix(1.9692780337941629 0 0 1.9692780337941629 646.9250445580341 677.5529299282862)" id="text-logo-path"  >
<path style="stroke: none; stroke-width: 1; stroke-dasharray: none; stroke-linecap: butt; stroke-dashoffset: 0; stroke-linejoin: miter; stroke-miterlimit: 4; fill: rgb(255,255,255); fill-rule: nonzero; opacity: 1;"  paint-order="stroke"  transform=" translate(-165.14000000000001, 33.449999999999996)" d="M 9.24 0 L 9.24 0 L 9.24 -66.94 Q 11.2 -67.33 14.4 -67.33 L 14.4 -67.33 Q 17.51 -67.33 19.62 -66.94 L 19.62 -66.94 L 19.62 0 Q 17.51 0.38 14.4 0.38 L 14.4 0.38 Q 11.2 0.38 9.24 0 Z M 30.1 -62.54 L 30.1 -62.54 Q 30.1 -64.84 30.48 -66.94 L 30.48 -66.94 L 75.56 -66.94 Q 76.13 -64.55 76.13 -62.83 L 76.13 -62.83 Q 76.13 -60.29 74.72 -59.19 Q 73.31 -58.09 70.25 -58.09 L 70.25 -58.09 L 63.88 -58.09 Q 63.26 -58.09 61.08 -58.16 Q 58.91 -58.24 58.19 -58.24 L 58.19 -58.24 L 58.19 0 Q 55.94 0.38 53.02 0.38 L 53.02 0.38 Q 49.96 0.38 47.71 0 L 47.71 0 L 47.71 -50.96 Q 47.71 -52.25 47.76 -54.55 Q 47.8 -56.85 47.8 -58.24 L 47.8 -58.24 L 47.71 -58.24 Q 47.09 -58.24 44.98 -58.16 Q 42.88 -58.09 42.16 -58.09 L 42.16 -58.09 L 30.48 -58.09 Q 30.1 -60.2 30.1 -62.54 Z M 79.91 -6.08 L 79.91 -6.08 Q 80.1 -8.28 81.4 -10.5 Q 82.69 -12.73 84.36 -14.12 L 84.36 -14.12 Q 88.91 -11.15 94.05 -9.31 Q 99.2 -7.46 104.03 -7.46 L 104.03 -7.46 Q 109.87 -7.46 113.17 -9.98 Q 116.47 -12.49 116.57 -16.65 L 116.57 -16.65 Q 116.57 -23.4 107.67 -27.23 L 107.67 -27.23 L 96.09 -32.25 Q 89.58 -35.08 86.13 -39.14 Q 82.69 -43.21 82.69 -49.19 L 82.69 -49.19 Q 82.69 -57.28 88.91 -62.73 Q 95.13 -68.19 104.84 -68.19 L 104.84 -68.19 Q 115.47 -68.19 125.61 -63.12 L 125.61 -63.12 Q 125.56 -60.96 124.49 -58.71 Q 123.41 -56.46 121.78 -54.98 L 121.78 -54.98 Q 117.81 -56.99 113.22 -58.28 Q 108.62 -59.58 105.03 -59.58 L 105.03 -59.58 Q 99.67 -59.58 96.47 -56.97 Q 93.26 -54.36 93.26 -50.39 L 93.26 -50.39 Q 93.26 -47.37 95.34 -45.32 Q 97.43 -43.26 101.4 -41.54 L 101.4 -41.54 L 112.79 -36.65 Q 119.53 -33.83 123.5 -29.24 Q 127.48 -24.64 127.48 -18.42 L 127.48 -18.42 Q 127.48 -9.57 121.33 -4.14 Q 115.18 1.29 103.46 1.29 L 103.46 1.29 Q 97.38 1.29 91.11 -0.67 Q 84.84 -2.63 79.91 -6.08 Z M 135.95 -26.08 L 135.95 -26.08 Q 135.95 -28.76 136.42 -30.48 L 136.42 -30.48 L 160.73 -30.48 Q 161.26 -28.57 161.26 -26.08 L 161.26 -26.08 Q 161.26 -23.69 160.73 -21.77 L 160.73 -21.77 L 136.42 -21.77 Q 135.95 -23.5 135.95 -26.08 Z M 175.23 0.1 L 174.61 -0.57 L 174.61 -66.32 L 175.23 -67.04 Q 183.75 -67.33 196.77 -67.33 L 196.77 -67.33 Q 201.22 -67.33 206.07 -66.06 Q 210.93 -64.79 213.85 -62.35 L 213.85 -62.35 Q 219.93 -57.33 222.08 -50.27 Q 224.23 -43.21 224.23 -33.4 L 224.23 -33.4 Q 224.23 -23.45 222.1 -16.48 Q 219.97 -9.52 213.85 -4.5 L 213.85 -4.5 Q 210.93 -2.06 206.07 -0.79 Q 201.22 0.48 196.77 0.48 L 196.77 0.48 Q 192.27 0.48 175.23 0.1 L 175.23 0.1 Z M 184.99 -59 L 184.99 -7.94 Q 185.23 -7.99 187.82 -7.99 L 187.82 -7.99 Q 189.11 -7.99 190.98 -7.99 L 190.98 -7.99 Q 196.62 -7.94 196.77 -7.94 L 196.77 -7.94 Q 200.93 -7.94 204.04 -9.52 Q 207.15 -11.1 208.9 -13.52 Q 210.64 -15.93 211.7 -19.48 Q 212.75 -23.02 213.08 -26.25 Q 213.42 -29.48 213.42 -33.4 L 213.42 -33.4 Q 213.42 -36.18 213.25 -38.54 Q 213.08 -40.91 212.63 -43.59 Q 212.17 -46.27 211.43 -48.4 Q 210.69 -50.53 209.4 -52.54 Q 208.11 -54.55 206.41 -55.91 Q 204.71 -57.28 202.24 -58.09 Q 199.78 -58.91 196.77 -58.91 L 196.77 -58.91 Q 194.76 -58.91 191 -58.95 Q 187.24 -59 184.99 -59 L 184.99 -59 Z M 233.52 -24.12 L 233.52 -24.12 Q 233.52 -31.53 235.74 -37.23 Q 237.97 -42.92 242.66 -46.3 Q 247.34 -49.67 254 -49.67 L 254 -49.67 Q 263.14 -49.67 268.28 -43.76 Q 273.42 -37.85 273.42 -28.71 L 273.42 -28.71 Q 273.42 -25.07 272.71 -20.96 L 272.71 -20.96 L 243.9 -20.96 Q 244.23 -14.31 246.82 -10.62 Q 249.4 -6.94 255.29 -6.94 L 255.29 -6.94 Q 261.75 -6.94 268.88 -10.67 L 268.88 -10.67 Q 270.07 -9.57 270.94 -7.73 Q 271.8 -5.89 272.13 -4.21 L 272.13 -4.21 Q 268.59 -1.67 263.69 -0.19 Q 258.78 1.29 253.71 1.29 L 253.71 1.29 Q 249.21 1.29 245.67 -0.1 Q 242.13 -1.48 239.88 -3.83 Q 237.63 -6.17 236.17 -9.5 Q 234.71 -12.82 234.11 -16.39 Q 233.52 -19.95 233.52 -24.12 Z M 243.9 -28.33 L 243.9 -28.33 L 263.71 -28.33 L 263.71 -29.57 Q 263.71 -35.12 261.29 -38.64 Q 258.88 -42.16 253.9 -42.16 L 253.9 -42.16 Q 249.31 -42.16 246.79 -38.54 Q 244.28 -34.93 243.9 -28.33 Z M 291.22 -5.07 L 277.68 -47.61 Q 281.03 -49.1 283.47 -49.1 L 283.47 -49.1 Q 287.97 -49.1 288.98 -44.79 L 288.98 -44.79 L 295.53 -23.21 Q 297.49 -17.18 299.36 -9 L 299.36 -9 Q 299.5 -8.42 299.65 -8.33 Q 299.79 -8.23 300.22 -8.23 L 300.22 -8.23 L 311.8 -48.43 Q 313.67 -48.81 315.63 -48.81 L 315.63 -48.81 Q 318.6 -48.81 320.7 -48.04 L 320.7 -48.04 L 321.04 -47.61 Q 313.76 -23.21 305.92 0 L 305.92 0 Q 303.09 0.48 298.59 0.48 L 298.59 0.48 Q 295.44 0.48 293.9 -0.57 Q 292.37 -1.63 291.22 -5.07 L 291.22 -5.07 Z" stroke-linecap="round" />
</g>
<g transform="matrix(1.9692780337941629 0 0 1.9692780337941629 640.4584721729883 807.2779292190648)" id="tagline-11bcb99a-eead-43b6-bcd5-c5d2127923ed-logo-path"  >
<path style="stroke: rgb(255,255,255); stroke-width: 2; stroke-dasharray: none; stroke-linecap: butt; stroke-dashoffset: 0; stroke-linejoin: miter; stroke-miterlimit: 4; fill: rgb(255,255,255); fill-rule: nonzero; opacity: 1;"  paint-order="stroke"  transform=" translate(-162.06, 10.92)" d="M 8.25 0.39 Q 4.92 0.39 3.23 -0.85 Q 1.53 -2.1 1.53 -4.05 L 1.53 -4.05 Q 1.53 -5.79 3.21 -5.79 L 3.21 -5.79 Q 3.54 -5.79 3.75 -5.76 L 3.75 -5.76 Q 3.6 -5.31 3.66 -4.5 L 3.66 -4.5 Q 3.75 -2.76 5.02 -1.74 Q 6.3 -0.72 8.49 -0.72 L 8.49 -0.72 Q 10.47 -0.72 11.65 -1.65 Q 12.84 -2.58 12.84 -4.38 L 12.84 -4.38 Q 12.84 -5.55 12.31 -6.39 Q 11.79 -7.23 10.81 -7.95 Q 9.84 -8.67 8.04 -9.66 L 8.04 -9.66 Q 6 -10.8 4.83 -11.65 Q 3.66 -12.51 2.97 -13.62 Q 2.28 -14.73 2.28 -16.26 L 2.28 -16.26 Q 2.28 -18.72 4.08 -19.95 Q 5.88 -21.18 8.64 -21.18 L 8.64 -21.18 Q 11.34 -21.18 12.97 -20.19 Q 14.61 -19.2 14.61 -17.46 L 14.61 -17.46 Q 14.61 -16.2 13.41 -16.08 L 13.41 -16.08 Q 13.17 -16.02 13.02 -16.02 L 13.02 -16.02 Q 12.84 -16.02 12.48 -16.08 L 12.48 -16.08 Q 12.57 -16.41 12.57 -16.68 L 12.57 -16.68 Q 12.57 -17.04 12.48 -17.34 L 12.48 -17.34 Q 12.36 -18.63 11.25 -19.35 Q 10.14 -20.07 8.4 -20.07 L 8.4 -20.07 Q 6.81 -20.07 5.68 -19.35 Q 4.56 -18.63 4.56 -17.01 L 4.56 -17.01 Q 4.56 -15.87 5.13 -15.01 Q 5.7 -14.16 6.66 -13.5 Q 7.62 -12.84 9.39 -11.85 L 9.39 -11.85 Q 11.28 -10.83 12.51 -9.93 Q 13.74 -9.03 14.49 -7.83 Q 15.24 -6.63 15.24 -5.04 L 15.24 -5.04 Q 15.24 -3.6 14.54 -2.37 Q 13.83 -1.14 12.27 -0.38 Q 10.71 0.39 8.25 0.39 L 8.25 0.39 Z M 24.84 0.39 Q 21.6 0.39 19.78 -1.72 Q 17.97 -3.84 17.97 -7.62 L 17.97 -7.62 Q 17.97 -11.4 19.78 -13.51 Q 21.6 -15.63 24.84 -15.63 L 24.84 -15.63 Q 28.11 -15.63 29.92 -13.51 Q 31.74 -11.4 31.74 -7.62 L 31.74 -7.62 Q 31.74 -3.84 29.92 -1.72 Q 28.11 0.39 24.84 0.39 L 24.84 0.39 Z M 24.84 -0.69 Q 26.94 -0.69 28.05 -2.48 Q 29.16 -4.26 29.16 -7.62 L 29.16 -7.62 Q 29.16 -10.98 28.05 -12.75 Q 26.94 -14.52 24.84 -14.52 L 24.84 -14.52 Q 22.74 -14.52 21.63 -12.75 Q 20.52 -10.98 20.52 -7.62 L 20.52 -7.62 Q 20.52 -4.26 21.63 -2.48 Q 22.74 -0.69 24.84 -0.69 L 24.84 -0.69 Z M 38.31 0.3 Q 36.96 0.3 36.21 -0.57 Q 35.46 -1.44 35.46 -3.03 L 35.46 -3.03 L 35.46 -20.58 Q 35.46 -21.21 35.85 -21.55 Q 36.24 -21.9 36.87 -21.9 L 36.87 -21.9 Q 37.62 -21.9 38.25 -21.36 L 38.25 -21.36 Q 38.01 -20.58 37.94 -19.35 Q 37.86 -18.12 37.86 -15.51 L 37.86 -15.51 L 37.86 -3.15 Q 37.86 -2.37 38.15 -1.96 Q 38.43 -1.56 39 -1.56 L 39 -1.56 Q 39.33 -1.56 39.65 -1.72 Q 39.96 -1.89 40.11 -2.19 L 40.11 -2.19 Q 40.44 -1.74 40.44 -1.26 L 40.44 -1.26 Q 40.44 -0.57 39.83 -0.14 Q 39.21 0.3 38.31 0.3 L 38.31 0.3 Z M 57.03 -2.01 Q 57.39 -1.53 57.39 -1.08 L 57.39 -1.08 Q 57.39 -0.45 56.91 -0.07 Q 56.43 0.3 55.59 0.3 L 55.59 0.3 Q 53.25 0.3 53.25 -2.76 L 53.25 -2.76 L 53.25 -3.36 Q 52.62 -1.59 51.3 -0.6 Q 49.98 0.39 48.21 0.39 L 48.21 0.39 Q 45.75 0.39 44.64 -1.05 Q 43.53 -2.49 43.5 -5.91 L 43.5 -5.91 L 43.5 -11.85 Q 43.5 -13.92 43.11 -15.09 L 43.11 -15.09 Q 43.77 -15.63 44.52 -15.63 L 44.52 -15.63 Q 45.12 -15.63 45.5 -15.27 Q 45.87 -14.91 45.87 -14.28 L 45.87 -14.28 L 45.9 -6.21 Q 45.9 -4.26 46.19 -3.12 Q 46.47 -1.98 47.12 -1.45 Q 47.76 -0.93 48.9 -0.93 L 48.9 -0.93 Q 49.92 -0.93 50.87 -1.67 Q 51.81 -2.4 52.43 -4 Q 53.04 -5.61 53.04 -8.07 L 53.04 -8.07 Q 53.04 -11.94 52.98 -13.11 Q 52.92 -14.28 52.62 -15.09 L 52.62 -15.09 Q 53.25 -15.63 54 -15.63 L 54 -15.63 Q 54.6 -15.63 54.99 -15.24 Q 55.38 -14.85 55.38 -14.19 L 55.38 -14.19 L 55.41 -3.09 Q 55.41 -2.25 55.61 -1.91 Q 55.8 -1.56 56.25 -1.56 L 56.25 -1.56 Q 56.79 -1.56 57.03 -2.01 L 57.03 -2.01 Z M 66.42 0.39 Q 63.12 0.39 61.29 -1.65 Q 59.46 -3.69 59.46 -7.53 L 59.46 -7.53 Q 59.46 -11.31 61.34 -13.47 Q 63.21 -15.63 66.63 -15.63 L 66.63 -15.63 Q 69.06 -15.63 70.39 -14.58 Q 71.73 -13.53 71.73 -11.82 L 71.73 -11.82 Q 71.73 -10.77 71.17 -10.14 Q 70.62 -9.51 69.75 -9.51 L 69.75 -9.51 Q 68.76 -9.51 68.34 -10.08 L 68.34 -10.08 Q 69.33 -10.47 69.33 -12 L 69.33 -12 Q 69.33 -13.29 68.5 -13.93 Q 67.68 -14.58 66.42 -14.58 L 66.42 -14.58 Q 64.41 -14.58 63.21 -12.84 Q 62.01 -11.1 62.01 -7.89 L 62.01 -7.89 Q 62.01 -4.44 63.39 -2.85 Q 64.77 -1.26 67.05 -1.26 L 67.05 -1.26 Q 68.7 -1.26 69.9 -2.07 Q 71.1 -2.88 71.46 -4.41 L 71.46 -4.41 Q 71.91 -4.26 71.91 -3.66 L 71.91 -3.66 Q 71.91 -3.27 71.76 -2.85 L 71.76 -2.85 Q 71.28 -1.29 69.86 -0.45 Q 68.43 0.39 66.42 0.39 L 66.42 0.39 Z M 77.1 -18 Q 76.44 -18 75.96 -18.48 Q 75.48 -18.96 75.48 -19.62 L 75.48 -19.62 Q 75.48 -20.31 75.96 -20.77 Q 76.44 -21.24 77.1 -21.24 L 77.1 -21.24 Q 77.79 -21.24 78.25 -20.77 Q 78.72 -20.31 78.72 -19.62 L 78.72 -19.62 Q 78.72 -18.96 78.25 -18.48 Q 77.79 -18 77.1 -18 L 77.1 -18 Z M 78.42 -3.42 Q 78.42 -1.23 78.81 -0.21 L 78.81 -0.21 Q 78.18 0.33 77.43 0.33 L 77.43 0.33 Q 76.83 0.33 76.45 -0.03 Q 76.08 -0.39 76.08 -0.99 L 76.08 -0.99 L 76.05 -11.88 Q 76.05 -13.95 75.66 -15.09 L 75.66 -15.09 Q 76.29 -15.63 77.04 -15.63 L 77.04 -15.63 Q 77.64 -15.63 78.01 -15.29 Q 78.39 -14.94 78.39 -14.31 L 78.39 -14.31 L 78.42 -3.42 Z M 89.28 0.39 Q 86.04 0.39 84.22 -1.72 Q 82.41 -3.84 82.41 -7.62 L 82.41 -7.62 Q 82.41 -11.4 84.22 -13.51 Q 86.04 -15.63 89.28 -15.63 L 89.28 -15.63 Q 92.55 -15.63 94.36 -13.51 Q 96.18 -11.4 96.18 -7.62 L 96.18 -7.62 Q 96.18 -3.84 94.36 -1.72 Q 92.55 0.39 89.28 0.39 L 89.28 0.39 Z M 89.28 -0.69 Q 91.38 -0.69 92.49 -2.48 Q 93.6 -4.26 93.6 -7.62 L 93.6 -7.62 Q 93.6 -10.98 92.49 -12.75 Q 91.38 -14.52 89.28 -14.52 L 89.28 -14.52 Q 87.18 -14.52 86.07 -12.75 Q 84.96 -10.98 84.96 -7.62 L 84.96 -7.62 Q 84.96 -4.26 86.07 -2.48 Q 87.18 -0.69 89.28 -0.69 L 89.28 -0.69 Z M 112.41 -3.42 Q 112.47 -1.14 112.8 -0.21 L 112.8 -0.21 Q 112.2 0.33 111.42 0.33 L 111.42 0.33 Q 110.79 0.33 110.4 -0.03 Q 110.01 -0.39 110.01 -0.99 L 110.01 -0.99 L 110.01 -9.09 Q 109.98 -11.7 109.27 -12.96 Q 108.57 -14.22 106.89 -14.22 L 106.89 -14.22 Q 105.84 -14.22 104.86 -13.5 Q 103.89 -12.78 103.26 -11.22 Q 102.63 -9.66 102.63 -7.23 L 102.63 -7.23 Q 102.63 -3.36 102.69 -2.19 Q 102.75 -1.02 103.05 -0.21 L 103.05 -0.21 Q 102.42 0.33 101.67 0.33 L 101.67 0.33 Q 101.04 0.33 100.65 -0.06 Q 100.26 -0.45 100.26 -1.11 L 100.26 -1.11 L 100.26 -12.18 Q 100.23 -13.02 100.03 -13.38 Q 99.84 -13.74 99.42 -13.74 L 99.42 -13.74 Q 98.85 -13.74 98.64 -13.26 L 98.64 -13.26 Q 98.28 -13.77 98.28 -14.22 L 98.28 -14.22 Q 98.28 -14.85 98.76 -15.22 Q 99.24 -15.6 100.08 -15.6 L 100.08 -15.6 Q 101.22 -15.6 101.82 -14.82 Q 102.42 -14.04 102.42 -12.51 L 102.42 -12.51 L 102.42 -11.91 Q 103.05 -13.68 104.4 -14.65 Q 105.75 -15.63 107.58 -15.63 L 107.58 -15.63 Q 112.41 -15.63 112.41 -9.39 L 112.41 -9.39 L 112.41 -3.42 Z M 128.13 -3.87 Q 128.58 -3.72 128.58 -3.18 L 128.58 -3.18 Q 128.58 -2.88 128.4 -2.37 L 128.4 -2.37 Q 127.83 -1.05 126.4 -0.33 Q 124.98 0.39 123.06 0.39 L 123.06 0.39 Q 119.76 0.39 117.9 -1.67 Q 116.04 -3.72 116.04 -7.53 L 116.04 -7.53 Q 116.04 -11.31 117.88 -13.47 Q 119.73 -15.63 123.18 -15.63 L 123.18 -15.63 Q 125.67 -15.63 127.17 -14.5 Q 128.67 -13.38 128.67 -11.31 L 128.67 -11.31 Q 128.67 -9.09 126.87 -7.92 Q 125.07 -6.75 121.86 -6.75 L 121.86 -6.75 Q 120.09 -6.75 118.62 -6.96 L 118.62 -6.96 Q 118.8 -3.93 120.13 -2.59 Q 121.47 -1.26 123.63 -1.26 L 123.63 -1.26 Q 125.28 -1.26 126.48 -1.93 Q 127.68 -2.61 128.13 -3.87 L 128.13 -3.87 Z M 123.09 -14.55 Q 121.05 -14.55 119.83 -12.85 Q 118.62 -11.16 118.59 -7.98 L 118.59 -7.98 Q 120.03 -7.86 120.93 -7.83 L 120.93 -7.83 Q 123.33 -7.83 124.72 -8.69 Q 126.12 -9.54 126.12 -11.61 L 126.12 -11.61 Q 126.12 -13.2 125.25 -13.88 Q 124.38 -14.55 123.09 -14.55 L 123.09 -14.55 Z M 136.77 0.39 Q 133.98 0.39 132.58 -0.61 Q 131.19 -1.62 131.19 -3.24 L 131.19 -3.24 Q 131.19 -3.99 131.55 -4.46 Q 131.91 -4.92 132.69 -4.92 L 132.69 -4.92 Q 132.99 -4.92 133.17 -4.89 L 133.17 -4.89 Q 133.08 -4.53 133.08 -4.17 L 133.08 -4.17 Q 133.08 -3.84 133.11 -3.63 L 133.11 -3.63 Q 133.17 -2.31 134.2 -1.53 Q 135.24 -0.75 136.98 -0.75 L 136.98 -0.75 Q 138.69 -0.75 139.71 -1.35 Q 140.73 -1.95 140.73 -3.12 L 140.73 -3.12 Q 140.73 -4.2 139.95 -4.83 Q 139.17 -5.46 137.49 -6.21 L 137.49 -6.21 L 136.53 -6.66 Q 134.85 -7.44 133.96 -7.98 Q 133.08 -8.52 132.43 -9.45 Q 131.79 -10.38 131.79 -11.79 L 131.79 -11.79 Q 131.79 -13.74 133.32 -14.7 Q 134.85 -15.66 137.19 -15.66 L 137.19 -15.66 Q 139.65 -15.66 141.03 -14.87 Q 142.41 -14.07 142.41 -12.66 L 142.41 -12.66 Q 142.41 -11.4 141.3 -11.28 L 141.3 -11.28 Q 141 -11.22 140.91 -11.22 L 140.91 -11.22 Q 140.73 -11.22 140.43 -11.28 L 140.43 -11.28 Q 140.49 -11.64 140.49 -11.88 L 140.49 -11.88 Q 140.49 -12.27 140.4 -12.54 L 140.4 -12.54 Q 140.28 -13.53 139.42 -14.04 Q 138.57 -14.55 137.1 -14.55 L 137.1 -14.55 Q 135.75 -14.55 134.88 -14.05 Q 134.01 -13.56 134.01 -12.48 L 134.01 -12.48 Q 134.01 -11.58 134.52 -10.93 Q 135.03 -10.29 135.73 -9.88 Q 136.44 -9.48 137.88 -8.79 L 137.88 -8.79 L 138.54 -8.49 Q 140.01 -7.8 140.89 -7.27 Q 141.78 -6.75 142.39 -5.91 Q 143.01 -5.07 143.01 -3.9 L 143.01 -3.9 Q 143.01 -2.13 141.54 -0.87 Q 140.07 0.39 136.77 0.39 L 136.77 0.39 Z M 154.95 0.33 Q 154.35 0.33 153.96 -0.03 Q 153.57 -0.39 153.57 -0.99 L 153.57 -0.99 L 153.54 -17.31 Q 153.54 -19.38 153.15 -20.52 L 153.15 -20.52 Q 153.78 -21.06 154.56 -21.06 L 154.56 -21.06 Q 155.19 -21.06 155.58 -20.71 Q 155.97 -20.37 155.97 -19.74 L 155.97 -19.74 L 155.97 -3.42 Q 155.97 -1.23 156.36 -0.21 L 156.36 -0.21 Q 155.73 0.33 154.95 0.33 L 154.95 0.33 Z M 173.76 -3.42 Q 173.82 -1.14 174.15 -0.21 L 174.15 -0.21 Q 173.55 0.33 172.77 0.33 L 172.77 0.33 Q 172.14 0.33 171.75 -0.03 Q 171.36 -0.39 171.36 -0.99 L 171.36 -0.99 L 171.36 -9.09 Q 171.33 -11.7 170.62 -12.96 Q 169.92 -14.22 168.24 -14.22 L 168.24 -14.22 Q 167.19 -14.22 166.21 -13.5 Q 165.24 -12.78 164.61 -11.22 Q 163.98 -9.66 163.98 -7.23 L 163.98 -7.23 Q 163.98 -3.36 164.04 -2.19 Q 164.1 -1.02 164.4 -0.21 L 164.4 -0.21 Q 163.77 0.33 163.02 0.33 L 163.02 0.33 Q 162.39 0.33 162 -0.06 Q 161.61 -0.45 161.61 -1.11 L 161.61 -1.11 L 161.61 -12.18 Q 161.58 -13.02 161.38 -13.38 Q 161.19 -13.74 160.77 -13.74 L 160.77 -13.74 Q 160.2 -13.74 159.99 -13.26 L 159.99 -13.26 Q 159.63 -13.77 159.63 -14.22 L 159.63 -14.22 Q 159.63 -14.85 160.11 -15.22 Q 160.59 -15.6 161.43 -15.6 L 161.43 -15.6 Q 162.57 -15.6 163.17 -14.82 Q 163.77 -14.04 163.77 -12.51 L 163.77 -12.51 L 163.77 -11.91 Q 164.4 -13.68 165.75 -14.65 Q 167.1 -15.63 168.93 -15.63 L 168.93 -15.63 Q 173.76 -15.63 173.76 -9.39 L 173.76 -9.39 L 173.76 -3.42 Z M 184.05 -22.23 Q 185.88 -22.23 186.96 -21.55 Q 188.04 -20.88 188.04 -19.68 L 188.04 -19.68 Q 188.04 -18.78 187.5 -18.25 Q 186.96 -17.73 186.3 -17.73 L 186.3 -17.73 Q 185.61 -17.73 185.34 -18.03 L 185.34 -18.03 Q 185.91 -18.78 185.91 -19.62 L 185.91 -19.62 Q 185.91 -21.21 183.99 -21.21 L 183.99 -21.21 Q 182.4 -21.21 181.92 -19.92 Q 181.44 -18.63 181.44 -16.29 L 181.44 -16.29 L 181.44 -15.21 L 183.3 -15.21 Q 183.78 -15.21 184.53 -15.24 Q 185.28 -15.27 185.76 -15.3 L 185.76 -15.3 L 185.73 -14.64 Q 185.7 -14.34 185.5 -14.14 Q 185.31 -13.95 185.04 -13.95 L 185.04 -13.95 L 181.44 -13.95 L 181.44 -3.42 Q 181.44 -1.26 181.8 -0.21 L 181.8 -0.21 Q 181.2 0.33 180.45 0.33 L 180.45 0.33 Q 179.85 0.33 179.46 -0.03 Q 179.07 -0.39 179.07 -0.99 L 179.07 -0.99 L 179.04 -13.95 L 178.59 -13.95 Q 177.36 -13.95 176.79 -13.86 L 176.79 -13.86 L 176.82 -14.55 Q 176.85 -14.88 177.03 -15.04 Q 177.21 -15.21 177.51 -15.21 L 177.51 -15.21 L 179.04 -15.21 L 179.04 -16.68 Q 179.04 -22.23 184.05 -22.23 L 184.05 -22.23 Z M 195.9 0.39 Q 192.66 0.39 190.84 -1.72 Q 189.03 -3.84 189.03 -7.62 L 189.03 -7.62 Q 189.03 -11.4 190.84 -13.51 Q 192.66 -15.63 195.9 -15.63 L 195.9 -15.63 Q 199.17 -15.63 200.98 -13.51 Q 202.8 -11.4 202.8 -7.62 L 202.8 -7.62 Q 202.8 -3.84 200.98 -1.72 Q 199.17 0.39 195.9 0.39 L 195.9 0.39 Z M 195.9 -0.69 Q 198 -0.69 199.11 -2.48 Q 200.22 -4.26 200.22 -7.62 L 200.22 -7.62 Q 200.22 -10.98 199.11 -12.75 Q 198 -14.52 195.9 -14.52 L 195.9 -14.52 Q 193.8 -14.52 192.69 -12.75 Q 191.58 -10.98 191.58 -7.62 L 191.58 -7.62 Q 191.58 -4.26 192.69 -2.48 Q 193.8 -0.69 195.9 -0.69 L 195.9 -0.69 Z M 213 -15.63 Q 214.56 -15.63 215.5 -14.8 Q 216.45 -13.98 216.45 -12.51 L 216.45 -12.51 Q 216.45 -11.52 215.88 -10.88 Q 215.31 -10.23 214.53 -10.23 L 214.53 -10.23 Q 213.87 -10.23 213.63 -10.53 L 213.63 -10.53 Q 213.96 -11.04 214.08 -11.47 Q 214.2 -11.91 214.2 -12.45 L 214.2 -12.45 Q 214.2 -14.31 212.46 -14.31 L 212.46 -14.31 Q 211.11 -14.31 210.19 -12.58 Q 209.28 -10.86 209.28 -7.23 L 209.28 -7.23 L 209.28 -5.61 Q 209.28 -2.91 209.34 -1.95 Q 209.4 -0.99 209.67 -0.27 L 209.67 -0.27 Q 209.04 0.27 208.26 0.27 L 208.26 0.27 Q 207.66 0.27 207.27 -0.1 Q 206.88 -0.48 206.88 -1.14 L 206.88 -1.14 L 206.88 -12.18 Q 206.88 -13.02 206.68 -13.38 Q 206.49 -13.74 206.04 -13.74 L 206.04 -13.74 Q 205.47 -13.74 205.26 -13.26 L 205.26 -13.26 Q 204.9 -13.77 204.9 -14.22 L 204.9 -14.22 Q 204.9 -14.85 205.38 -15.22 Q 205.86 -15.6 206.7 -15.6 L 206.7 -15.6 Q 207.87 -15.6 208.45 -14.77 Q 209.04 -13.95 209.01 -12.33 L 209.01 -12.33 L 209.01 -12.18 Q 209.52 -13.89 210.54 -14.76 Q 211.56 -15.63 213 -15.63 L 213 -15.63 Z M 241.2 -3.42 Q 241.2 -1.35 241.59 -0.21 L 241.59 -0.21 Q 240.93 0.33 240.21 0.33 L 240.21 0.33 Q 239.61 0.33 239.22 -0.03 Q 238.83 -0.39 238.83 -0.99 L 238.83 -0.99 L 238.83 -9.09 Q 238.83 -11.67 238.2 -12.99 Q 237.57 -14.31 235.98 -14.31 L 235.98 -14.31 Q 235.02 -14.31 234.12 -13.62 Q 233.22 -12.93 232.6 -11.41 Q 231.99 -9.9 231.96 -7.62 L 231.96 -7.62 L 231.99 -3.42 Q 231.99 -1.26 232.35 -0.21 L 232.35 -0.21 Q 231.75 0.33 231 0.33 L 231 0.33 Q 230.4 0.33 230.04 -0.03 Q 229.68 -0.39 229.68 -0.99 L 229.68 -0.99 L 229.65 -9.09 Q 229.65 -11.76 228.99 -13.04 Q 228.33 -14.31 226.71 -14.31 L 226.71 -14.31 Q 225.72 -14.31 224.83 -13.57 Q 223.95 -12.84 223.38 -11.21 Q 222.81 -9.57 222.81 -7.05 L 222.81 -7.05 Q 222.81 -3.27 222.87 -2.13 Q 222.93 -0.99 223.23 -0.21 L 223.23 -0.21 Q 222.6 0.33 221.85 0.33 L 221.85 0.33 Q 221.22 0.33 220.84 -0.06 Q 220.47 -0.45 220.47 -1.11 L 220.47 -1.11 L 220.44 -12.15 Q 220.44 -12.93 220.17 -13.33 Q 219.9 -13.74 219.39 -13.74 L 219.39 -13.74 Q 219.12 -13.74 218.85 -13.57 Q 218.58 -13.41 218.46 -13.11 L 218.46 -13.11 Q 218.13 -13.53 218.13 -14.04 L 218.13 -14.04 Q 218.13 -14.73 218.67 -15.16 Q 219.21 -15.6 219.99 -15.6 L 219.99 -15.6 Q 221.22 -15.6 221.89 -14.74 Q 222.57 -13.89 222.57 -12.27 L 222.57 -12.27 L 222.57 -11.79 Q 223.17 -13.59 224.43 -14.61 Q 225.69 -15.63 227.4 -15.63 L 227.4 -15.63 Q 231.06 -15.63 231.75 -11.73 L 231.75 -11.73 Q 232.29 -13.56 233.58 -14.59 Q 234.87 -15.63 236.64 -15.63 L 236.64 -15.63 Q 238.98 -15.63 240.09 -14.05 Q 241.2 -12.48 241.2 -9.39 L 241.2 -9.39 L 241.2 -3.42 Z M 259.38 -2.19 Q 259.71 -1.74 259.71 -1.26 L 259.71 -1.26 Q 259.71 -0.6 259.09 -0.15 Q 258.48 0.3 257.61 0.3 L 257.61 0.3 Q 256.32 0.3 255.66 -0.6 Q 255 -1.5 255 -3.42 L 255 -3.42 L 255 -4.29 Q 254.01 -2.16 252.31 -0.91 Q 250.62 0.33 248.61 0.33 L 248.61 0.33 Q 246.87 0.33 245.86 -0.61 Q 244.86 -1.56 244.86 -3.15 L 244.86 -3.15 Q 244.86 -4.92 246.21 -6.15 Q 247.56 -7.38 249.84 -8.01 L 249.84 -8.01 Q 251.85 -8.55 254.01 -8.55 L 254.01 -8.55 Q 254.61 -8.55 254.88 -8.52 L 254.88 -8.52 L 254.88 -9.3 Q 254.88 -11.97 253.99 -13.26 Q 253.11 -14.55 251.07 -14.55 L 251.07 -14.55 Q 249.75 -14.55 248.85 -13.98 Q 247.95 -13.41 247.95 -12.12 L 247.95 -12.12 Q 247.95 -11.43 248.26 -10.83 Q 248.58 -10.23 249.24 -9.99 L 249.24 -9.99 Q 248.76 -9.39 247.8 -9.39 L 247.8 -9.39 Q 246.81 -9.39 246.18 -10.19 Q 245.55 -10.98 245.55 -12.03 L 245.55 -12.03 Q 245.55 -13.77 247.08 -14.7 Q 248.61 -15.63 251.28 -15.63 L 251.28 -15.63 Q 254.37 -15.63 255.84 -14.04 Q 257.31 -12.45 257.31 -9.15 L 257.31 -9.15 L 257.31 -3.15 Q 257.31 -1.56 258.39 -1.56 L 258.39 -1.56 Q 258.63 -1.56 258.93 -1.72 Q 259.23 -1.89 259.38 -2.19 L 259.38 -2.19 Z M 249.57 -1.35 Q 250.77 -1.35 252.01 -2.23 Q 253.26 -3.12 254.08 -4.56 Q 254.91 -6 254.94 -7.56 L 254.94 -7.56 L 254.25 -7.59 Q 253.2 -7.59 252.12 -7.42 Q 251.04 -7.26 250.29 -6.96 L 250.29 -6.96 Q 248.97 -6.48 248.22 -5.64 Q 247.47 -4.8 247.47 -3.66 L 247.47 -3.66 Q 247.47 -2.67 247.98 -2.01 Q 248.49 -1.35 249.57 -1.35 L 249.57 -1.35 Z M 255.57 -21.03 L 251.55 -16.89 Q 251.25 -16.89 250.9 -16.95 Q 250.56 -17.01 250.47 -17.1 L 250.47 -17.1 L 253.2 -21.6 Q 253.74 -21.63 254.52 -21.43 Q 255.3 -21.24 255.57 -21.03 L 255.57 -21.03 Z M 266.49 -15.21 Q 266.97 -15.21 267.76 -15.24 Q 268.56 -15.27 269.04 -15.3 L 269.04 -15.3 L 269.01 -14.64 Q 268.98 -14.34 268.8 -14.14 Q 268.62 -13.95 268.35 -13.95 L 268.35 -13.95 L 265.26 -13.95 L 265.26 -12.81 L 265.26 -3.15 Q 265.26 -2.37 265.62 -1.95 Q 265.98 -1.53 266.7 -1.53 L 266.7 -1.53 Q 267.15 -1.53 267.55 -1.69 Q 267.96 -1.86 268.11 -2.16 L 268.11 -2.16 Q 268.44 -1.71 268.44 -1.2 L 268.44 -1.2 Q 268.44 -0.51 267.72 -0.09 Q 267 0.33 265.89 0.33 L 265.89 0.33 Q 264.48 0.33 263.67 -0.55 Q 262.86 -1.44 262.86 -3 L 262.86 -3 L 262.86 -13.95 L 262.44 -13.95 Q 261.21 -13.95 260.64 -13.86 L 260.64 -13.86 L 260.67 -14.55 Q 260.7 -15.21 261.33 -15.21 L 261.33 -15.21 L 262.86 -15.21 L 262.86 -17.88 Q 262.86 -18.51 263.25 -18.86 Q 263.64 -19.2 264.27 -19.2 L 264.27 -19.2 Q 265.02 -19.2 265.65 -18.66 L 265.65 -18.66 Q 265.32 -17.64 265.29 -15.21 L 265.29 -15.21 L 266.49 -15.21 Z M 273.99 -18 Q 273.33 -18 272.85 -18.48 Q 272.37 -18.96 272.37 -19.62 L 272.37 -19.62 Q 272.37 -20.31 272.85 -20.77 Q 273.33 -21.24 273.99 -21.24 L 273.99 -21.24 Q 274.68 -21.24 275.14 -20.77 Q 275.61 -20.31 275.61 -19.62 L 275.61 -19.62 Q 275.61 -18.96 275.14 -18.48 Q 274.68 -18 273.99 -18 L 273.99 -18 Z M 275.31 -3.42 Q 275.31 -1.23 275.7 -0.21 L 275.7 -0.21 Q 275.07 0.33 274.32 0.33 L 274.32 0.33 Q 273.72 0.33 273.34 -0.03 Q 272.97 -0.39 272.97 -0.99 L 272.97 -0.99 L 272.94 -11.88 Q 272.94 -13.95 272.55 -15.09 L 272.55 -15.09 Q 273.18 -15.63 273.93 -15.63 L 273.93 -15.63 Q 274.53 -15.63 274.9 -15.29 Q 275.28 -14.94 275.28 -14.31 L 275.28 -14.31 L 275.31 -3.42 Z M 286.26 0.39 Q 282.96 0.39 281.13 -1.65 Q 279.3 -3.69 279.3 -7.53 L 279.3 -7.53 Q 279.3 -11.31 281.17 -13.47 Q 283.05 -15.63 286.47 -15.63 L 286.47 -15.63 Q 288.9 -15.63 290.23 -14.58 Q 291.57 -13.53 291.57 -11.82 L 291.57 -11.82 Q 291.57 -10.77 291.01 -10.14 Q 290.46 -9.51 289.59 -9.51 L 289.59 -9.51 Q 288.6 -9.51 288.18 -10.08 L 288.18 -10.08 Q 289.17 -10.47 289.17 -12 L 289.17 -12 Q 289.17 -13.29 288.34 -13.93 Q 287.52 -14.58 286.26 -14.58 L 286.26 -14.58 Q 284.25 -14.58 283.05 -12.84 Q 281.85 -11.1 281.85 -7.89 L 281.85 -7.89 Q 281.85 -4.44 283.23 -2.85 Q 284.61 -1.26 286.89 -1.26 L 286.89 -1.26 Q 288.54 -1.26 289.74 -2.07 Q 290.94 -2.88 291.3 -4.41 L 291.3 -4.41 Q 291.75 -4.26 291.75 -3.66 L 291.75 -3.66 Q 291.75 -3.27 291.6 -2.85 L 291.6 -2.85 Q 291.12 -1.29 289.69 -0.45 Q 288.27 0.39 286.26 0.39 L 286.26 0.39 Z M 309 -2.19 Q 309.33 -1.74 309.33 -1.26 L 309.33 -1.26 Q 309.33 -0.6 308.71 -0.15 Q 308.1 0.3 307.23 0.3 L 307.23 0.3 Q 305.94 0.3 305.28 -0.6 Q 304.62 -1.5 304.62 -3.42 L 304.62 -3.42 L 304.62 -4.29 Q 303.63 -2.16 301.93 -0.91 Q 300.24 0.33 298.23 0.33 L 298.23 0.33 Q 296.49 0.33 295.48 -0.61 Q 294.48 -1.56 294.48 -3.15 L 294.48 -3.15 Q 294.48 -4.92 295.83 -6.15 Q 297.18 -7.38 299.46 -8.01 L 299.46 -8.01 Q 301.47 -8.55 303.63 -8.55 L 303.63 -8.55 Q 304.23 -8.55 304.5 -8.52 L 304.5 -8.52 L 304.5 -9.3 Q 304.5 -11.97 303.61 -13.26 Q 302.73 -14.55 300.69 -14.55 L 300.69 -14.55 Q 299.37 -14.55 298.47 -13.98 Q 297.57 -13.41 297.57 -12.12 L 297.57 -12.12 Q 297.57 -11.43 297.88 -10.83 Q 298.2 -10.23 298.86 -9.99 L 298.86 -9.99 Q 298.38 -9.39 297.42 -9.39 L 297.42 -9.39 Q 296.43 -9.39 295.8 -10.19 Q 295.17 -10.98 295.17 -12.03 L 295.17 -12.03 Q 295.17 -13.77 296.7 -14.7 Q 298.23 -15.63 300.9 -15.63 L 300.9 -15.63 Q 303.99 -15.63 305.46 -14.04 Q 306.93 -12.45 306.93 -9.15 L 306.93 -9.15 L 306.93 -3.15 Q 306.93 -1.56 308.01 -1.56 L 308.01 -1.56 Q 308.25 -1.56 308.55 -1.72 Q 308.85 -1.89 309 -2.19 L 309 -2.19 Z M 299.19 -1.35 Q 300.39 -1.35 301.63 -2.23 Q 302.88 -3.12 303.7 -4.56 Q 304.53 -6 304.56 -7.56 L 304.56 -7.56 L 303.87 -7.59 Q 302.82 -7.59 301.74 -7.42 Q 300.66 -7.26 299.91 -6.96 L 299.91 -6.96 Q 298.59 -6.48 297.84 -5.64 Q 297.09 -4.8 297.09 -3.66 L 297.09 -3.66 Q 297.09 -2.67 297.6 -2.01 Q 298.11 -1.35 299.19 -1.35 L 299.19 -1.35 Z M 316.35 0.39 Q 313.56 0.39 312.16 -0.61 Q 310.77 -1.62 310.77 -3.24 L 310.77 -3.24 Q 310.77 -3.99 311.13 -4.46 Q 311.49 -4.92 312.27 -4.92 L 312.27 -4.92 Q 312.57 -4.92 312.75 -4.89 L 312.75 -4.89 Q 312.66 -4.53 312.66 -4.17 L 312.66 -4.17 Q 312.66 -3.84 312.69 -3.63 L 312.69 -3.63 Q 312.75 -2.31 313.78 -1.53 Q 314.82 -0.75 316.56 -0.75 L 316.56 -0.75 Q 318.27 -0.75 319.29 -1.35 Q 320.31 -1.95 320.31 -3.12 L 320.31 -3.12 Q 320.31 -4.2 319.53 -4.83 Q 318.75 -5.46 317.07 -6.21 L 317.07 -6.21 L 316.11 -6.66 Q 314.43 -7.44 313.54 -7.98 Q 312.66 -8.52 312.01 -9.45 Q 311.37 -10.38 311.37 -11.79 L 311.37 -11.79 Q 311.37 -13.74 312.9 -14.7 Q 314.43 -15.66 316.77 -15.66 L 316.77 -15.66 Q 319.23 -15.66 320.61 -14.87 Q 321.99 -14.07 321.99 -12.66 L 321.99 -12.66 Q 321.99 -11.4 320.88 -11.28 L 320.88 -11.28 Q 320.58 -11.22 320.49 -11.22 L 320.49 -11.22 Q 320.31 -11.22 320.01 -11.28 L 320.01 -11.28 Q 320.07 -11.64 320.07 -11.88 L 320.07 -11.88 Q 320.07 -12.27 319.98 -12.54 L 319.98 -12.54 Q 319.86 -13.53 319 -14.04 Q 318.15 -14.55 316.68 -14.55 L 316.68 -14.55 Q 315.33 -14.55 314.46 -14.05 Q 313.59 -13.56 313.59 -12.48 L 313.59 -12.48 Q 313.59 -11.58 314.1 -10.93 Q 314.61 -10.29 315.31 -9.88 Q 316.02 -9.48 317.46 -8.79 L 317.46 -8.79 L 318.12 -8.49 Q 319.59 -7.8 320.47 -7.27 Q 321.36 -6.75 321.97 -5.91 Q 322.59 -5.07 322.59 -3.9 L 322.59 -3.9 Q 322.59 -2.13 321.12 -0.87 Q 319.65 0.39 316.35 0.39 L 316.35 0.39 Z" stroke-linecap="round" />
</g>
</svg>