<svg width="1200" height="630" viewBox="0 0 1200 630" fill="none" xmlns="http://www.w3.org/2000/svg">
  <defs>
    <linearGradient id="bg-gradient" x1="0%" y1="0%" x2="100%" y2="100%">
      <stop offset="0%" style="stop-color:#224859"/>
      <stop offset="100%" style="stop-color:#1a3a47"/>
    </linearGradient>
    <linearGradient id="accent-gradient" x1="0%" y1="0%" x2="100%" y2="0%">
      <stop offset="0%" style="stop-color:#7AA228"/>
      <stop offset="100%" style="stop-color:#9BC53D"/>
    </linearGradient>
  </defs>
  
  <!-- Background -->
  <rect width="1200" height="630" fill="url(#bg-gradient)"/>
  
  <!-- Decorative elements -->
  <circle cx="100" cy="530" r="200" fill="#7AA228" opacity="0.1"/>
  <circle cx="1100" cy="100" r="150" fill="#7AA228" opacity="0.1"/>
  
  <!-- Grid pattern -->
  <g opacity="0.05">
    <line x1="0" y1="0" x2="1200" y2="0" stroke="white" stroke-width="1"/>
    <line x1="0" y1="100" x2="1200" y2="100" stroke="white" stroke-width="1"/>
    <line x1="0" y1="200" x2="1200" y2="200" stroke="white" stroke-width="1"/>
    <line x1="0" y1="300" x2="1200" y2="300" stroke="white" stroke-width="1"/>
    <line x1="0" y1="400" x2="1200" y2="400" stroke="white" stroke-width="1"/>
    <line x1="0" y1="500" x2="1200" y2="500" stroke="white" stroke-width="1"/>
    <line x1="0" y1="600" x2="1200" y2="600" stroke="white" stroke-width="1"/>
  </g>
  
  <!-- Logo icon -->
  <g transform="translate(100, 220)">
    <rect x="0" y="0" width="80" height="80" rx="16" fill="#7AA228"/>
    <text x="40" y="55" font-family="Arial, sans-serif" font-size="40" font-weight="bold" fill="white" text-anchor="middle">{'<>'}</text>
  </g>
  
  <!-- Text content -->
  <text x="200" y="260" font-family="Arial, sans-serif" font-size="72" font-weight="bold" fill="white">
    ITS-Dev
  </text>
  
  <text x="100" y="340" font-family="Arial, sans-serif" font-size="36" fill="#7AA228">
    Soluciones Tecnológicas que Funcionan
  </text>
  
  <text x="100" y="420" font-family="Arial, sans-serif" font-size="24" fill="rgba(255,255,255,0.8)">
    Desarrollo de Software • Infraestructura TI • Automatización
  </text>
  
  <!-- Bottom bar -->
  <rect x="0" y="580" width="1200" height="50" fill="#7AA228"/>
  <text x="600" y="612" font-family="Arial, sans-serif" font-size="20" fill="white" text-anchor="middle">
    www.itsdev.cl | contacto@itsdev.cl | +56 9 9095 8220
  </text>
</svg>
